# xmcd
#
# Track frame offsets:
# 150
# 8028
# 13053
# 28203
# 38703
# 44519
# 55619
# 61616
# 77253
# 93491
# 107141
# 116441
# 126566
# 129866
# 138453
# 147453
# 157466
# 170853
# 180266
# 186794
# 197441
# 205953
# 217466
# 228341
# 242291
# 259503
# 266666
# 289241
#
# Disc length: 3994 seconds
#
# Revision: 1
# Processed by: cddbd v1.5.2PL0 Copyright (c) Steve Scherf et al.
# Submitted via: Easy CD Ripper 2.39
#
DISCID=960f981c
DTITLE=成人兒歌 - 成人兒歌
DYEAR=2005
DGENRE=Blues
TTITLE0=430穿梭機 - 張國榮
TTITLE1=IQ博士 - 梅艷芳
TTITLE2=超人的主題曲 - 陳奕迅
TTITLE3=足球小將 - 張衛健
TTITLE4=我得你唔得 - 小太陽兒童合唱團
TTITLE5=我係小忌廉 - 戴蘊慧
TTITLE6=宇宙大帝 - 張國榮
TTITLE7=龍珠94 Remix - 張崇基+張崇德
TTITLE8=問題天天都多 - 歐倩怡
TTITLE9=我都做得到 - 小太陽兒童合唱團
TTITLE10=黃金戰士 - 胡渭康
TTITLE11=一般歪風 - 梅艷芳
TTITLE12=世界是個大懷抱 - 小太陽兒童合唱團
TTITLE13=藍精靈 - 小太陽兒童合唱團
TTITLE14=電子神童 - 胡渭康
TTITLE15=忍者 - 小太陽兒童合唱團
TTITLE16=傳說 - 梅艷芳
TTITLE17=共享陽光 - 蔣慶龍
TTITLE18=腦波子 - 陳美齡
TTITLE19=雷鳥拯救隊 - 蔣慶龍
TTITLE20=看盡好風光 - 小太陽兒童合唱團
TTITLE21=怪物小皇子 - 胡渭康
TTITLE22=戰士高狄安 - 蔣慶龍
TTITLE23=千年女王 - 梅艷芳
TTITLE24=聖鬥士星矢 - 譚耀文
TTITLE25=小小朋友仔 - 胡渭康
TTITLE26=超人迪加 X 屎撈人 (Live Version - 陳奕迅+梁漢文
TTITLE27=活力430 (此曲為單聲道錄音) - 張國榮
EXTD=2005
EXTT0=
EXTT1=
EXTT2=
EXTT3=
EXTT4=
EXTT5=
EXTT6=
EXTT7=
EXTT8=
EXTT9=
EXTT10=
EXTT11=
EXTT12=
EXTT13=
EXTT14=
EXTT15=
EXTT16=
EXTT17=
EXTT18=
EXTT19=
EXTT20=
EXTT21=
EXTT22=
EXTT23=
EXTT24=
EXTT25=
EXTT26=
EXTT27=
PLAYORDER=
